<svg width="24" height="24" viewBox="0 0 24 24" fill="none" xmlns="http://www.w3.org/2000/svg">
<path d="M12.2727 6.54545V9.27273L15.9091 5.63636L12.2727 2V4.72727C10.3439 4.72727 8.49403 5.4935 7.13013 6.85741C5.76623 8.22131 5 10.0712 5 12C5 13.4273 5.41818 14.7545 6.12727 15.8727L7.45455 14.5455C7.04545 13.7909 6.81818 12.9091 6.81818 12C6.81818 10.5534 7.39286 9.16598 8.41578 8.14305C9.43871 7.12013 10.8261 6.54545 12.2727 6.54545ZM18.4182 8.12727L17.0909 9.45455C17.4909 10.2182 17.7273 11.0909 17.7273 12C17.7273 13.4466 17.1526 14.834 16.1297 15.8569C15.1067 16.8799 13.7194 17.4545 12.2727 17.4545V14.7273L8.63636 18.3636L12.2727 22V19.2727C14.2016 19.2727 16.0514 18.5065 17.4153 17.1426C18.7792 15.7787 19.5455 13.9288 19.5455 12C19.5455 10.5727 19.1273 9.24545 18.4182 8.12727Z" fill="black"/>
</svg>
